<svg id="Capa_1" data-name="Capa 1" xmlns="http://www.w3.org/2000/svg" viewBox="0 0 91.85 35.38"><defs><style>.cls-1,.cls-2{fill:#fff;}.cls-2{font-size:27.13px;font-family:HelveticaNeue-Black, Helvetica Neue;font-weight:800;}</style></defs><path class="cls-1" d="M16.63,33.83A13.48,13.48,0,0,0,16.8,37c.08.54.07.58-.61.87l-.7.31-1.36-.54c-2.48-1-4.61-.89-4.61.25,0,.54,1,1.9,2.33,3.22.69.67,1,1,1,1.34a4.86,4.86,0,0,0,.86,2.39,5.53,5.53,0,0,0,3.21,1.58,6.72,6.72,0,0,0,2-.14c3.13-.66,4.8-2.28,4.77-4.64a4.24,4.24,0,0,0-3.92-4.31L19,37.24l-.86-1.75C17.3,33.85,16.9,33.39,16.63,33.83Zm-3.12,3.91a18.42,18.42,0,0,1,4.07,2.06c.69.51,1,1,.78,1.45s-1.49.91-2.67,1a2.34,2.34,0,0,1-1.87-.41c-1.89-1.12-4-3.18-4-3.92a.74.74,0,0,1,.2-.45C10.3,37.14,12.33,37.32,13.51,37.74Zm6,.29a.37.37,0,0,1-.21.64.37.37,0,0,1-.34-.54C19.05,37.86,19.19,37.85,19.51,38Zm2.28.83c1,.81,1.57,3.31.86,4-.43.42-.68.39-1.32-.15a4,4,0,0,1-1.11-2.83C20.22,38.55,20.85,38.13,21.79,38.86Z" transform="translate(-4.07 -32.79)"/><path class="cls-1" d="M20.71,39.24c-.47,1.22.53,3.45,1.48,3.31.77-.11.66-2.08-.19-3.14C21.65,38.92,20.86,38.83,20.71,39.24Zm.76,0c.66.24,1.28,2.53.83,3-.62.62-2-2.16-1.37-2.86C21.15,39.11,21.13,39.11,21.47,39.25Z" transform="translate(-4.07 -32.79)"/><path class="cls-1" d="M21.24,40.24c0,.61.41,1.4.7,1.4s.31-.81,0-1.4S21.24,39.63,21.24,40.24Z" transform="translate(-4.07 -32.79)"/><path class="cls-1" d="M17.16,46.8a6,6,0,0,0-4,3.09c-.39.77-.5.86-1.64,1.36-3.07,1.31-5.85,3.61-6.83,5.59-1.14,2.33-.64,4,1.23,4a7.78,7.78,0,0,0,3.58-1.41,13.41,13.41,0,0,0,3.09-3.37c.16-.27.19-.25.43.2a4,4,0,0,0,.79.94c.52.42.58.58,1,2.36a27.36,27.36,0,0,0,1.53,5.34,2.49,2.49,0,0,0,2.53,1.5c.7-.17,1-.69,1-1.66s-.32-1.65-2.62-4.71c-.88-1.18-1.59-2.16-1.59-2.21a2.11,2.11,0,0,1,.71-.15A7.79,7.79,0,0,0,20,55.75,9.18,9.18,0,0,0,21.29,54l.51-1,1.08,1.18a14.44,14.44,0,0,0,4.22,3.28,4.5,4.5,0,0,0,2.45.44c1.3,0,1.56,0,1.95-.31,1-.77.89-1.91-.39-3.19-1.51-1.51-4-2.47-7.31-2.81a13.88,13.88,0,0,1-1.58-.22,6.5,6.5,0,0,1-.2-1A4,4,0,0,0,17.16,46.8Zm-2,1.92a3.52,3.52,0,0,0,2.08,3.53,4,4,0,0,0,3.89-.06c.62-.42.65-.41.34.2a5.75,5.75,0,0,1-2.13,1.92,3.82,3.82,0,0,1-2.18.38,4.12,4.12,0,0,1-2.24-.38c-.9-.47-1-.79-.65-2.09s.28-1.72-.27-1.83c-.4-.08-.4-.08-.2-.69s1.08-1.65,1.33-1.65A1.44,1.44,0,0,1,15.18,48.72Zm5.56.16c0,.28,0,.42-.17.42a.59.59,0,0,1-.52-.72C20.21,48.19,20.69,48.39,20.74,48.88ZM13.82,52.3a10.2,10.2,0,0,1-6,6.81,3.87,3.87,0,0,1-3,.09c-1.17-.81.87-4,3.84-6a20.33,20.33,0,0,1,4.64-2.31C14.13,50.73,14.18,50.91,13.82,52.3Zm10-.33c2.9.31,5.7,1.4,7,2.73.8.8.85,1.19.19,1.67-.89.68-3.09.46-5.23-.51a8.27,8.27,0,0,1-3.1-2.25c-.62-.75-.72-.92-.62-1.34a1.28,1.28,0,0,1,.17-.47Zm-5.74,9.81c1.16,1.63,1.47,2.32,1.36,3.11s-.36,1-1,1a2.26,2.26,0,0,1-1.83-1.31,19.64,19.64,0,0,1-1.14-3.8c0-.33.06-.36.84-.36h.86Z" transform="translate(-4.07 -32.79)"/><rect class="cls-1" x="15.8" y="15.5" width="1.09" height="1.41"/><rect class="cls-1" x="14.7" y="5.03" width="0.94" height="1.09"/><text class="cls-2" transform="translate(34.54 29.09)">GTS</text><path class="cls-1" d="M43.63,32.87a6.37,6.37,0,0,1,1-.08,1.67,1.67,0,0,1,1.14.34,1.13,1.13,0,0,1,.36.86,1.18,1.18,0,0,1-.32.87,1.68,1.68,0,0,1-1.25.45,1.36,1.36,0,0,1-.42,0v1.65h-.53Zm.53,2a1.34,1.34,0,0,0,.43,0c.64,0,1-.32,1-.87s-.38-.81-1-.81a2.51,2.51,0,0,0-.5,0Z" transform="translate(-4.07 -32.79)"/><path class="cls-1" d="M46.74,34.89c0-.34,0-.64,0-.91h.47l0,.57h0a.89.89,0,0,1,.82-.64l.14,0v.5l-.18,0a.75.75,0,0,0-.71.69,1,1,0,0,0,0,.25v1.57h-.54Z" transform="translate(-4.07 -32.79)"/><path class="cls-1" d="M51.33,35.42A1.44,1.44,0,0,1,49.87,37a1.39,1.39,0,0,1-1.41-1.51,1.43,1.43,0,0,1,1.45-1.56A1.39,1.39,0,0,1,51.33,35.42Zm-2.33,0c0,.65.37,1.13.89,1.13s.9-.48.9-1.14c0-.5-.26-1.13-.89-1.13S49,34.9,49,35.45Z" transform="translate(-4.07 -32.79)"/><path class="cls-1" d="M52.16,34l.64,1.73c.07.2.14.43.19.6h0l.19-.61L53.77,34h.57l-.81,2.09a4.52,4.52,0,0,1-1,1.84,1.62,1.62,0,0,1-.66.35l-.13-.45a1.5,1.5,0,0,0,.47-.26,1.76,1.76,0,0,0,.44-.6.27.27,0,0,0,.05-.13.3.3,0,0,0,0-.13L51.57,34Z" transform="translate(-4.07 -32.79)"/><path class="cls-1" d="M55.06,35.54a.94.94,0,0,0,1,1,2,2,0,0,0,.81-.15l.09.38A2.25,2.25,0,0,1,56,37a1.37,1.37,0,0,1-1.44-1.48,1.43,1.43,0,0,1,1.38-1.59,1.24,1.24,0,0,1,1.21,1.38,1.47,1.47,0,0,1,0,.25Zm1.56-.38a.75.75,0,0,0-.73-.87.88.88,0,0,0-.82.87Z" transform="translate(-4.07 -32.79)"/><path class="cls-1" d="M59.9,36.81a2,2,0,0,1-.84.17,1.4,1.4,0,0,1-1.47-1.5,1.5,1.5,0,0,1,1.58-1.57,1.66,1.66,0,0,1,.74.16l-.12.41a1.29,1.29,0,0,0-.62-.14,1,1,0,0,0-1,1.11,1,1,0,0,0,1,1.1,1.63,1.63,0,0,0,.66-.14Z" transform="translate(-4.07 -32.79)"/><path class="cls-1" d="M61.25,33.13V34H62v.4h-.76V36c0,.36.1.57.4.57a1.11,1.11,0,0,0,.31,0l0,.41a1.37,1.37,0,0,1-.47.07.74.74,0,0,1-.58-.23,1.1,1.1,0,0,1-.21-.76V34.38h-.45V34h.45v-.71Z" transform="translate(-4.07 -32.79)"/><path class="cls-1" d="M65.24,35.42A1.44,1.44,0,0,1,63.78,37a1.39,1.39,0,0,1-1.41-1.51,1.43,1.43,0,0,1,1.45-1.56A1.39,1.39,0,0,1,65.24,35.42Zm-2.33,0c0,.65.37,1.13.89,1.13s.89-.48.89-1.14c0-.5-.25-1.13-.88-1.13S62.91,34.9,62.91,35.45Z" transform="translate(-4.07 -32.79)"/></svg>